<mxfile host="app.diagrams.net" modified="2024-06-13T11:27:22.295Z" agent="Mozilla/5.0 (X11; Ubuntu; Linux x86_64; rv:126.0) Gecko/20100101 Firefox/126.0" etag="JAu0FPhyRl9UVbmb1Iuv" version="24.5.4" type="device">
  <diagram name="PÃ¡gina-1" id="IIkXf18SgjcBAtaHbKGV">
    <mxGraphModel dx="1364" dy="713" grid="1" gridSize="10" guides="1" tooltips="1" connect="1" arrows="1" fold="1" page="1" pageScale="1" pageWidth="827" pageHeight="1169" math="0" shadow="0">
      <root>
        <mxCell id="0" />
        <mxCell id="1" parent="0" />
        <mxCell id="vGnIyPXEDsaw-sA1sAU9-1" value="Livro" style="rounded=0;whiteSpace=wrap;html=1;" vertex="1" parent="1">
          <mxGeometry x="90" y="80" width="120" height="60" as="geometry" />
        </mxCell>
        <mxCell id="vGnIyPXEDsaw-sA1sAU9-2" value="Autor" style="rounded=0;whiteSpace=wrap;html=1;" vertex="1" parent="1">
          <mxGeometry x="590" y="80" width="120" height="60" as="geometry" />
        </mxCell>
        <mxCell id="vGnIyPXEDsaw-sA1sAU9-6" style="edgeStyle=orthogonalEdgeStyle;rounded=0;orthogonalLoop=1;jettySize=auto;html=1;endArrow=none;endFill=0;" edge="1" parent="1" source="vGnIyPXEDsaw-sA1sAU9-3" target="vGnIyPXEDsaw-sA1sAU9-2">
          <mxGeometry relative="1" as="geometry" />
        </mxCell>
        <mxCell id="vGnIyPXEDsaw-sA1sAU9-3" value="Escreve" style="shape=rhombus;perimeter=rhombusPerimeter;whiteSpace=wrap;html=1;align=center;" vertex="1" parent="1">
          <mxGeometry x="350" y="80" width="120" height="60" as="geometry" />
        </mxCell>
        <mxCell id="vGnIyPXEDsaw-sA1sAU9-4" value="" style="endArrow=none;html=1;rounded=0;exitX=1;exitY=0.5;exitDx=0;exitDy=0;entryX=0;entryY=0.5;entryDx=0;entryDy=0;" edge="1" parent="1" source="vGnIyPXEDsaw-sA1sAU9-1" target="vGnIyPXEDsaw-sA1sAU9-3">
          <mxGeometry relative="1" as="geometry">
            <mxPoint x="110" y="240" as="sourcePoint" />
            <mxPoint x="270" y="240" as="targetPoint" />
          </mxGeometry>
        </mxCell>
      </root>
    </mxGraphModel>
  </diagram>
</mxfile>
